<svg xmlns="http://www.w3.org/2000/svg" xmlns:xlink="http://www.w3.org/1999/xlink" viewBox="0 0 2070.89 1064.84" style=""><defs><style>.cls-1,
.cls-10,
.cls-11,
.cls-12,
.cls-13,
.cls-14,
.cls-15,
.cls-16,
.cls-17,
.cls-18,
.cls-19,
.cls-2,
.cls-20,
.cls-21,
.cls-22,
.cls-23,
.cls-24,
.cls-25,
.cls-26,
.cls-27,
.cls-28,
.cls-29,
.cls-3,
.cls-30,
.cls-31,
.cls-32,
.cls-33,
.cls-34,
.cls-35,
.cls-36,
.cls-37,
.cls-38,
.cls-39,
.cls-4,
.cls-40,
.cls-41,
.cls-42,
.cls-43,
.cls-44,
.cls-45,
.cls-46,
.cls-47,
.cls-5,
.cls-6,
.cls-7,
.cls-8,
.cls-9 {
    fill: none;
    stroke-linecap: round;
    stroke-miterlimit: 10;
}

.cls-1,
.cls-10,
.cls-11,
.cls-12,
.cls-13,
.cls-14,
.cls-15,
.cls-16,
.cls-17,
.cls-18,
.cls-19,
.cls-2,
.cls-20,
.cls-21,
.cls-22,
.cls-23,
.cls-24,
.cls-25,
.cls-26,
.cls-27,
.cls-28,
.cls-29,
.cls-3,
.cls-30,
.cls-31,
.cls-32,
.cls-33,
.cls-34,
.cls-4,
.cls-47,
.cls-5,
.cls-6,
.cls-7,
.cls-8,
.cls-9 {
    stroke-width: 1.22px;
}

.cls-1 {
    stroke: url(#Новый_образец_градиентной_залив);
}

.cls-2 {
    stroke: url(#Новый_образец_градиентной_залив-2);
}

.cls-3 {
    stroke: url(#Новый_образец_градиентной_залив-3);
}

.cls-4 {
    stroke: url(#Безымянный_градиент_10);
}

.cls-5 {
    stroke: url(#Безымянный_градиент_10-2);
}

.cls-6 {
    stroke: url(#Безымянный_градиент_10-3);
}

.cls-7 {
    stroke: url(#Безымянный_градиент_10-4);
}

.cls-8 {
    stroke: url(#Безымянный_градиент_10-5);
}

.cls-9 {
    stroke: url(#Безымянный_градиент_10-6);
}

.cls-10 {
    stroke: url(#Безымянный_градиент_10-7);
}

.cls-11 {
    stroke: url(#Безымянный_градиент_10-8);
}

.cls-12 {
    stroke: url(#Безымянный_градиент_10-9);
}

.cls-13 {
    stroke: url(#Безымянный_градиент_10-10);
}

.cls-14 {
    stroke: url(#Безымянный_градиент_10-11);
}

.cls-15 {
    stroke: url(#Безымянный_градиент_10-12);
}

.cls-16 {
    stroke: url(#Безымянный_градиент_10-13);
}

.cls-17 {
    stroke: url(#Безымянный_градиент_10-14);
}

.cls-18 {
    stroke: url(#Безымянный_градиент_10-15);
}

.cls-19 {
    stroke: url(#Безымянный_градиент_10-16);
}

.cls-20 {
    stroke: url(#Безымянный_градиент_10-17);
}

.cls-21 {
    stroke: url(#Безымянный_градиент_10-18);
}

.cls-22 {
    stroke: url(#Безымянный_градиент_10-19);
}

.cls-23 {
    stroke: url(#Безымянный_градиент_10-20);
}

.cls-24 {
    stroke: url(#Безымянный_градиент_10-21);
}

.cls-25 {
    stroke: url(#Безымянный_градиент_10-22);
}

.cls-26 {
    stroke: url(#Безымянный_градиент_10-23);
}

.cls-27 {
    stroke: url(#Безымянный_градиент_10-24);
}

.cls-28 {
    stroke: url(#Безымянный_градиент_10-26);
}

.cls-29 {
    stroke: url(#Безымянный_градиент_10-27);
}

.cls-30 {
    stroke: url(#Безымянный_градиент_10-28);
}

.cls-31 {
    stroke: url(#Безымянный_градиент_10-29);
}

.cls-32 {
    stroke: url(#Безымянный_градиент_10-30);
}

.cls-33 {
    stroke: url(#Безымянный_градиент_2);
}

.cls-34 {
    stroke: url(#Безымянный_градиент_2-2);
}

.cls-35,
.cls-36,
.cls-37,
.cls-38,
.cls-39,
.cls-40,
.cls-41,
.cls-42,
.cls-43,
.cls-44,
.cls-45,
.cls-46 {
    stroke-width: 1.2px;
}

.cls-35 {
    stroke: url(#Безымянный_градиент_2-3);
}

.cls-36 {
    stroke: url(#Безымянный_градиент_2-4);
}

.cls-37 {
    stroke: url(#Безымянный_градиент_2-5);
}

.cls-38 {
    stroke: url(#Безымянный_градиент_2-6);
}

.cls-39 {
    stroke: url(#Безымянный_градиент_2-7);
}

.cls-40 {
    stroke: url(#Безымянный_градиент_2-8);
}

.cls-41 {
    stroke: url(#Безымянный_градиент_2-10);
}

.cls-42 {
    stroke: url(#Безымянный_градиент_2-11);
}

.cls-43 {
    stroke: url(#Безымянный_градиент_2-12);
}

.cls-44 {
    stroke: url(#Безымянный_градиент_2-13);
}

.cls-45 {
    stroke: url(#Безымянный_градиент_2-14);
}

.cls-46 {
    stroke: url(#Безымянный_градиент_2-15);
}

.cls-47 {
    stroke: url(#Безымянный_градиент_2-17);
}

.clss-1 {
                fill: #4a4a4a;
            }

            .clss-2 {
                fill: url(#Безымянный_градиент_8);
            }

            .clss-3 {
                fill: url(#Безымянный_градиент_8-2);
            }

            .clss-4 {
                fill: url(#Безымянный_градиент_3);
            }

            .clss-5 {
                fill: url(#Безымянный_градиент_3-2);
            }

            .clss-6,
            .clss-7 {
                fill: none;
                stroke-miterlimit: 10;
            }

            .clss-6 {
                stroke: url(#Безымянный_градиент_8-3);
            }

            .clss-7 {
                stroke-width: 1.01px;
                stroke: url(#Безымянный_градиент_3-3);
            }

            .clss-8 {
                fill: url(#Безымянный_градиент_8-4);
            }

</style><linearGradient id="Новый_образец_градиентной_залив" x1="369.21" y1="444.62" x2="585.73" y2="228.1" gradientUnits="userSpaceOnUse"><stop offset="0" stop-color="#060672"></stop><stop offset="0.98" stop-color="#1475c3"></stop></linearGradient><linearGradient id="Новый_образец_градиентной_залив-2" x1="584.97" y1="496.95" x2="745.61" y2="496.95" xlink:href="#Новый_образец_градиентной_залив"></linearGradient><linearGradient id="Новый_образец_градиентной_залив-3" x1="646.96" y1="103.28" x2="976.55" y2="103.28" xlink:href="#Новый_образец_градиентной_залив"></linearGradient><linearGradient id="Безымянный_градиент_10" x1="401.75" y1="512.35" x2="424.68" y2="512.35" gradientUnits="userSpaceOnUse"><stop offset="0" stop-color="#060672"></stop><stop offset="0.16" stop-color="#071079"></stop><stop offset="0.42" stop-color="#0b2a8c"></stop><stop offset="0.75" stop-color="#1054ab"></stop><stop offset="0.98" stop-color="#1475c3"></stop></linearGradient><linearGradient id="Безымянный_градиент_10-2" x1="451.66" y1="482.49" x2="474.59" y2="482.49" xlink:href="#Безымянный_градиент_10"></linearGradient><linearGradient id="Безымянный_градиент_10-3" x1="224.5" y1="590.75" x2="604.17" y2="590.75" xlink:href="#Безымянный_градиент_10"></linearGradient><linearGradient id="Безымянный_градиент_10-4" x1="19.62" y1="627.12" x2="25.09" y2="627.12" xlink:href="#Безымянный_градиент_10"></linearGradient><linearGradient id="Безымянный_градиент_10-5" x1="-40.55" y1="482.49" x2="604.17" y2="482.49" xlink:href="#Безымянный_градиент_10"></linearGradient><linearGradient id="Безымянный_градиент_10-6" x1="-40.55" y1="483.23" x2="604.17" y2="483.23" xlink:href="#Безымянный_градиент_10"></linearGradient><linearGradient id="Безымянный_градиент_10-7" x1="-40.55" y1="427.19" x2="604.17" y2="427.19" xlink:href="#Безымянный_градиент_10"></linearGradient><linearGradient id="Безымянный_градиент_10-8" x1="-40.55" y1="553.96" x2="604.17" y2="553.96" xlink:href="#Безымянный_градиент_10"></linearGradient><linearGradient id="Безымянный_градиент_10-9" x1="-40.55" y1="531.27" x2="604.17" y2="531.27" xlink:href="#Безымянный_градиент_10"></linearGradient><linearGradient id="Безымянный_градиент_10-10" x1="-40.55" y1="542.84" x2="604.17" y2="542.84" xlink:href="#Безымянный_градиент_10"></linearGradient><linearGradient id="Безымянный_градиент_10-11" x1="-40.55" y1="496.11" x2="604.17" y2="496.11" xlink:href="#Безымянный_градиент_10"></linearGradient><linearGradient id="Безымянный_градиент_10-12" x1="-40.55" y1="537.6" x2="604.17" y2="537.6" xlink:href="#Безымянный_градиент_10"></linearGradient><linearGradient id="Безымянный_градиент_10-13" x1="-40.55" y1="528.25" x2="604.17" y2="528.25" xlink:href="#Безымянный_градиент_10"></linearGradient><linearGradient id="Безымянный_градиент_10-14" x1="-40.55" y1="513.45" x2="604.17" y2="513.45" xlink:href="#Безымянный_градиент_10"></linearGradient><linearGradient id="Безымянный_градиент_10-15" x1="-40.55" y1="494.97" x2="604.17" y2="494.97" xlink:href="#Безымянный_градиент_10"></linearGradient><linearGradient id="Безымянный_градиент_10-16" x1="-40.55" y1="490.23" x2="604.17" y2="490.23" xlink:href="#Безымянный_градиент_10"></linearGradient><linearGradient id="Безымянный_градиент_10-17" x1="-40.55" y1="477.3" x2="604.17" y2="477.3" xlink:href="#Безымянный_градиент_10"></linearGradient><linearGradient id="Безымянный_градиент_10-18" x1="-40.55" y1="465.62" x2="604.17" y2="465.62" xlink:href="#Безымянный_градиент_10"></linearGradient><linearGradient id="Безымянный_градиент_10-19" x1="-40.55" y1="470.81" x2="604.17" y2="470.81" xlink:href="#Безымянный_градиент_10"></linearGradient><linearGradient id="Безымянный_градиент_10-20" x1="-40.55" y1="592.25" x2="604.17" y2="592.25" xlink:href="#Безымянный_градиент_10"></linearGradient><linearGradient id="Безымянный_градиент_10-21" x1="-40.55" y1="610.94" x2="604.17" y2="610.94" xlink:href="#Безымянный_градиент_10"></linearGradient><linearGradient id="Безымянный_градиент_10-22" x1="-40.55" y1="582.98" x2="604.17" y2="582.98" xlink:href="#Безымянный_градиент_10"></linearGradient><linearGradient id="Безымянный_градиент_10-23" x1="-40.55" y1="620.35" x2="604.17" y2="620.35" xlink:href="#Безымянный_градиент_10"></linearGradient><linearGradient id="Безымянный_градиент_10-24" x1="-40.55" y1="627.12" x2="604.17" y2="627.12" xlink:href="#Безымянный_градиент_10"></linearGradient><linearGradient id="Безымянный_градиент_10-26" x1="-40.55" y1="608.47" x2="604.17" y2="608.47" xlink:href="#Безымянный_градиент_10"></linearGradient><linearGradient id="Безымянный_градиент_10-27" x1="-40.55" y1="578.39" x2="604.17" y2="578.39" xlink:href="#Безымянный_градиент_10"></linearGradient><linearGradient id="Безымянный_градиент_10-28" x1="-40.55" y1="569.87" x2="604.17" y2="569.87" xlink:href="#Безымянный_градиент_10"></linearGradient><linearGradient id="Безымянный_градиент_10-29" x1="-40.55" y1="586.91" x2="604.17" y2="586.91" xlink:href="#Безымянный_градиент_10"></linearGradient><linearGradient id="Безымянный_градиент_10-30" x1="-40.55" y1="608.09" x2="604.17" y2="608.09" xlink:href="#Безымянный_градиент_10"></linearGradient><linearGradient id="Безымянный_градиент_2" x1="1460.85" y1="443.41" x2="1689.09" y2="443.41" gradientUnits="userSpaceOnUse"><stop offset="0.02" stop-color="#1475c3"></stop><stop offset="1" stop-color="#060672"></stop></linearGradient><linearGradient id="Безымянный_градиент_2-2" x1="1696.9" y1="458.71" x2="1961.08" y2="458.71" xlink:href="#Безымянный_градиент_2"></linearGradient><linearGradient id="Безымянный_градиент_2-3" x1="1745.47" y1="50.67" x2="1849.03" y2="50.67" xlink:href="#Безымянный_градиент_2"></linearGradient><linearGradient id="Безымянный_градиент_2-4" x1="1745.47" y1="41.96" x2="2134.69" y2="41.96" xlink:href="#Безымянный_градиент_2"></linearGradient><linearGradient id="Безымянный_градиент_2-5" x1="1745.47" y1="71.65" x2="2134.69" y2="71.65" xlink:href="#Безымянный_градиент_2"></linearGradient><linearGradient id="Безымянный_градиент_2-6" x1="1745.47" y1="27.11" x2="2134.69" y2="27.11" xlink:href="#Безымянный_градиент_2"></linearGradient><linearGradient id="Безымянный_градиент_2-7" x1="1745.47" y1="86.61" x2="2134.69" y2="86.61" xlink:href="#Безымянный_градиент_2"></linearGradient><linearGradient id="Безымянный_градиент_2-8" x1="1745.47" y1="97.36" x2="2134.69" y2="97.36" xlink:href="#Безымянный_градиент_2"></linearGradient><linearGradient id="Безымянный_градиент_2-10" x1="1745.47" y1="67.72" x2="2134.69" y2="67.72" xlink:href="#Безымянный_градиент_2"></linearGradient><linearGradient id="Безымянный_градиент_2-11" x1="1745.47" y1="19.95" x2="2134.69" y2="19.95" xlink:href="#Безымянный_градиент_2"></linearGradient><linearGradient id="Безымянный_градиент_2-12" x1="1745.47" y1="50.4" x2="2134.69" y2="50.4" xlink:href="#Безымянный_градиент_2"></linearGradient><linearGradient id="Безымянный_градиент_2-13" x1="1745.47" y1="6.41" x2="2134.69" y2="6.41" xlink:href="#Безымянный_градиент_2"></linearGradient><linearGradient id="Безымянный_градиент_2-14" x1="1745.47" y1="33.48" x2="2134.69" y2="33.48" xlink:href="#Безымянный_градиент_2"></linearGradient><linearGradient id="Безымянный_градиент_2-15" x1="1745.47" y1="67.32" x2="2134.69" y2="67.32" xlink:href="#Безымянный_градиент_2"></linearGradient><linearGradient id="Безымянный_градиент_2-17" x1="1352.82" y1="186.72" x2="1753.95" y2="186.72" xlink:href="#Безымянный_градиент_2"></linearGradient><linearGradient id="Безымянный_градиент_8" x1="401.27" y1="159.83" x2="423.43" y2="159.83" gradientUnits="userSpaceOnUse">
            <stop offset="0" stop-color="#060672" />
            <stop offset="0.98" stop-color="#1475c3" />
        </linearGradient>
        <linearGradient id="Безымянный_градиент_8-2" x1="634.93" y1="368.98" x2="657.1" y2="368.98" xlink:href="#Безымянный_градиент_8" />
        <linearGradient id="Безымянный_градиент_3" x1="1561.53" y1="160.17" x2="1583.7" y2="160.17" gradientUnits="userSpaceOnUse">
            <stop offset="0.02" stop-color="#1475c3" />
            <stop offset="1" stop-color="#060672" />
        </linearGradient>
        <linearGradient id="Безымянный_градиент_3-2" x1="1817.32" y1="175.73" x2="1839.49" y2="175.73" xlink:href="#Безымянный_градиент_3" />
        <linearGradient id="Безымянный_градиент_8-3" x1="0" y1="293.74" x2="663.87" y2="293.74" xlink:href="#Безымянный_градиент_8" />
        <linearGradient id="Безымянный_градиент_3-3" x1="1319.47" y1="110.64" x2="2072.38" y2="110.64" xlink:href="#Безымянный_градиент_3" />
        <linearGradient id="Безымянный_градиент_8-4" x1="213.89" y1="358.32" x2="236.06" y2="358.32" xlink:href="#Безымянный_градиент_8" /></defs><title>все 3</title><g id="Слой_2" data-name="Слой 2"><g id="Слой_1-2" data-name="Слой 1"><path class="cls-1 jhjWyliG_0" d="M374.89,219h-3.53a2,2,0,0,1-2-2v-4.45a2,2,0,0,1,2-2h3.53a2,2,0,0,1,2,2V217A2,2,0,0,1,374.89,219Zm15.75-2v-4.45a2,2,0,0,0-2-2h-3.53a2,2,0,0,0-2,2V217a2,2,0,0,0,2,2h3.53A2,2,0,0,0,390.64,217Zm13.72,0v-4.45a2,2,0,0,0-2-2H398.8a2,2,0,0,0-2,2V217a2,2,0,0,0,2,2h3.53A2,2,0,0,0,404.36,217Zm-43.78,12.73,197.44.43m-93.79,55.67V257.29a2,2,0,0,0-2-2H371.35a2,2,0,0,0-2,2v28.54a2,2,0,0,0,2,2H462.2A2,2,0,0,0,464.23,285.83ZM534,259.26v-2a2,2,0,0,0-2-2H477.33a2,2,0,0,0-2,2v2a2,2,0,0,0,2,2H532A2,2,0,0,0,534,259.26Zm0,13.28v-2a2,2,0,0,0-2-2H477.33a2,2,0,0,0-2,2v2a2,2,0,0,0,2,2H532A2,2,0,0,0,534,272.54Zm0,13.28v-2a2,2,0,0,0-2-2H477.33a2,2,0,0,0-2,2v2a2,2,0,0,0,2,2H532A2,2,0,0,0,534,285.83Zm0,20v-2a2,2,0,0,0-2-2H371.19a2,2,0,0,0-2,2v2a2,2,0,0,0,2,2H532A2,2,0,0,0,534,305.81Zm0,12.67v-2a2,2,0,0,0-2-2H371.19a2,2,0,0,0-2,2v2a2,2,0,0,0,2,2H532A2,2,0,0,0,534,318.48Zm-.1,12.67v-2a2,2,0,0,0-2-2H489.65a2,2,0,0,0-2,2v2a2,2,0,0,0,2,2h42.23A2,2,0,0,0,533.91,331.15ZM654.8,309a26.53,26.53,0,1,0,26.53,26.53A26.53,26.53,0,0,0,654.8,309Zm-5.22,19.14-11.91,1.73,8.62,8.4-2,11.86,10.66-5.6,10.66,5.6-2-11.86,8.62-8.4-11.91-1.73-5.33-10.79Zm-51.23,24.71v-.68a2,2,0,0,0-2-2H557a2,2,0,0,0-2,2v.68a2,2,0,0,0,2,2h39.33A2,2,0,0,0,598.34,352.85Zm40.15,14.78V367a2,2,0,0,0-2-2H557a2,2,0,0,0-2,2v.68a2,2,0,0,0,2,2h79.48A2,2,0,0,0,638.49,367.64Zm0,14.35v-.68a2,2,0,0,0-2-2H557a2,2,0,0,0-2,2V382a2,2,0,0,0,2,2h79.48A2,2,0,0,0,638.49,382Zm0,13.78v-.68a2,2,0,0,0-2-2H557a2,2,0,0,0-2,2v.68a2,2,0,0,0,2,2h79.48A2,2,0,0,0,638.49,395.77Zm-10-65.05H548.65A14.69,14.69,0,0,0,534,345.36v56A14.69,14.69,0,0,0,548.65,416h8.57l-2.28,21.75a5.53,5.53,0,0,0,9.27,3.92L587.79,416h55.86a14.69,14.69,0,0,0,14.65-14.65V362.09m-100-31.38V204a4.88,4.88,0,0,0-4.86-4.86H364.83A4.88,4.88,0,0,0,360,204V364.8a4.88,4.88,0,0,0,4.86,4.86H534M314.84,314.92l-.3-22.77m-23.7,45.93H269.92m67.72,0h21.93m-45.15,23.69.11,21.29M314.24,315a23.4,23.4,0,1,0,23.4,23.4A23.4,23.4,0,0,0,314.24,315Zm.46-13.08a36.19,36.19,0,1,0,36.19,36.19A36.19,36.19,0,0,0,314.7,301.89Zm-.86,24c3.28,0,5.39,1.66,6.38,4.94a.59.59,0,0,1-.19.76l-.48.27c-.22.13-.38.09-.54-.22-.77-2.65-2.2-4-5.13-4-3.19,0-4.78,1.57-4.78,4.67.16,2.6.67,3.68,2.23,4.26a5.7,5.7,0,0,0,1.37.4c.35,0,1,.13,1.75.27a8.36,8.36,0,0,1,4.24,1.44c1.24.9,1.82,2.56,1.82,4.94,0,4.13-2.1,6.55-6.34,6.55q-5.21,0-6.79-5.65a.57.57,0,0,1,.22-.72l.54-.22c.22-.13.38,0,.48.31.8,3.05,2.61,4.58,5.52,4.58,3.35,0,5-1.57,5-4.76,0-3.41-1.56-4.26-5-4.76-.86-.13-1.53-.22-2-.31a7.4,7.4,0,0,1-1.66-.58A3.29,3.29,0,0,1,309,337a7.6,7.6,0,0,1-1.28-4.62C307.75,328.26,309.86,325.93,313.84,325.93Zm.86-5.09v5.64m-.22,22.85V356"></path><path class="cls-2 jhjWyliG_1" d="M733.34,456.75a77.64,77.64,0,0,1,8.25,19.93m-35-47.1a77.66,77.66,0,0,0-20.63-8.8m-39.49-.13a77.65,77.65,0,0,0-20.57,8.59m-27.13,27.22a77.64,77.64,0,0,0-8.47,20.4m.07,39.14a77.65,77.65,0,0,0,8.48,20.27m26.91,27A77.64,77.64,0,0,0,646.84,572m37.59.17A77.65,77.65,0,0,0,706.71,563m26.06-26.15a77.65,77.65,0,0,0,8.94-21.32M729.46,511a65.69,65.69,0,0,0-.21-30.19m-7-17.34a65.47,65.47,0,0,0-21.91-22.49M683,433.42a65.64,65.64,0,0,0-32.48-.42m-18.06,7.42a65.47,65.47,0,0,0-22.55,22.65m-7.16,17.39a65.66,65.66,0,0,0,0,31.62m7.32,17.69a65.47,65.47,0,0,0,22,22.15m18.91,7.79a65.72,65.72,0,0,0,28.59.33m21.07-8.54a65.48,65.48,0,0,0,20.47-20.42m11.7,5.74-11.7-5.74m8.38-20.1,12.25,4.52m-35,47.47-6.11-11.47m-16,20.68-5-11.93M646.84,572l4.22-12.32m-25.28,3.56L632,551.91m-21.75-22.09-11.43,6.45M590.38,516l12.38-3.94m-12.45-35.21,12.47,3.59m-4-24L610,463m40.55-30-4.07-12.35m-20.57,8.59,6.58,11.18m74.12-10.84-6.29,11.36M686,420.78,683,433.42m58.57,43.26-12.34,4.1m4.09-24-11.12,6.68m-48.75,80.76A48.57,48.57,0,0,0,713,505.07m0,0-32.93-.36m-6.59,39.49V511.31m6.59-6.6-6.59,6.6m-55.09-6.87A48.57,48.57,0,0,0,657.51,544m.36-32.93L657.51,544m-39.13-39.53h32.89m0,0,6.6,6.59m55.62-22.46A48.57,48.57,0,0,0,674.36,449m0,0L674,482m39.49,6.59H680.6m0,0L674,482m-16.71-32.92a48.57,48.57,0,0,0-39.53,39.13m0,0,32.93.36m6.59-39.49V482m-6.59,6.6,6.59-6.6m8.2,22.49a8.16,8.16,0,1,0-8.16-8.16A8.16,8.16,0,0,0,665.48,504.44Zm-6-2.63,12.32-10.69m63.92-49.59-15.29-15.36-17.19,16.69,5.59,4.34a65.1,65.1,0,0,1,6.34,6.4l4,5.06Zm-3.86-23.38-7.46,7.65a3.21,3.21,0,0,0,.06,4.53l7.65,7.46a3.21,3.21,0,0,0,4.53-.06l7.46-7.65a3.21,3.21,0,0,0-.06-4.53l-7.65-7.46A3.21,3.21,0,0,0,731.87,418.15ZM706,469.87a36.76,36.76,0,0,0-6.38-7.69L676.06,484l4.54,4.53h5.81Zm-32,5.23L674,482l2.06,2.06s22.82-21.21,23.29-21.72a34.57,34.57,0,0,0-6.83-5.94Zm-42.38,55.11,2.34,2.34c.38.27,2.09,1.76,2.3,1.92L638.5,536l19.19-17.59.14-7.2-3.63-3.84Zm22.54-22.76-3-3H644.2l-18.42,18.63,1.54,2.18c.16.21,1.2,1.55,1.85,2.32l2.49,2.74Zm-22.54,22.76c-.34.35-12.33,11.21-12.53,11.39a56.88,56.88,0,0,0,7,6.29L638.5,536C636.17,534.68,633.22,531.73,631.69,530.21Zm0,0a45.39,45.39,0,0,1-5.91-7.14l-12.43,11.64a77.89,77.89,0,0,0,5.81,6.89S632.08,530.42,631.69,530.21ZM619.16,541.6l-15.61,16.68,6,6.67,16.64-17.06A81.1,81.1,0,0,1,619.16,541.6Zm-15.61,16.68,15.61-16.68a71.86,71.86,0,0,1-5.81-6.89l-16.58,17.8A58.68,58.68,0,0,1,603.55,558.28Zm-16.42,18.32c5.55-2.79,17.6-8.89,21.31-11a1.07,1.07,0,0,0,.29-1.64,71.65,71.65,0,0,0-10.91-10.7,1.07,1.07,0,0,0-1.62.38l-10.51,21.49A1.07,1.07,0,0,0,587.13,576.59Z"></path><path class="cls-3 jhjWyliG_2" d="M866.48,108.38l-.72,0A12.65,12.65,0,0,1,862,83.67a13.68,13.68,0,0,1,3.91-.22m5.4,50.22.78,0a12.65,12.65,0,1,0,0-25.29c-1.54,0-4.16,0-5.61,0m-3.55-24.93h113M873.21,133.69H805.73m-74.4,6.23a2.86,2.86,0,1,0,2.86,2.86A2.86,2.86,0,0,0,731.32,139.92Zm15.84,2.86h15.56m11.45,0h82.66m-86.29-25.11,73.23.07m-122.65-29h2.26a11.45,11.45,0,0,0,0-22.91h-1.81M675.68,88.73h-3.06a14.32,14.32,0,1,0,0,28.64h1.27m27.58-51.54H723.4m.41,22.91h-51m-.19,28.64h84.55M651.93,60.91a4.37,4.37,0,1,0,4.37,4.37A4.37,4.37,0,0,0,651.93,60.91ZM670,65.82h16.47"></path><path class="cls-4 jhjWyliG_3" d="M402.34999999999997,512.35A10.86,10.98 0,1,1 424.07,512.35A10.86,10.98 0,1,1 402.34999999999997,512.35"></path><path class="cls-5 jhjWyliG_4" d="M452.27,482.49A10.86,10.98 0,1,1 473.99,482.49A10.86,10.98 0,1,1 452.27,482.49"></path><path class="cls-6 jhjWyliG_5" d="M225.11,583.77h0a13.92,13.92,0,0,0,13.8,14H589.75a13.92,13.92,0,0,0,13.8-14H225.11Z"></path><path class="cls-7 jhjWyliG_6" d="M20.23,627.12A2.13,2.13 0,1,1 24.49,627.12A2.13,2.13 0,1,1 20.23,627.12"></path><path class="cls-8 jhjWyliG_7" d="M577.29,435V575.09a8,8,0,0,1-7.91,8H259.7a8,8,0,0,1-7.91-8V389.9a8,8,0,0,1,7.91-8H533.88"></path><path class="cls-9 jhjWyliG_8" d="M511.3,396.64H272.73a8,8,0,0,0-7.91,8V561.81a8,8,0,0,0,7.91,8H555a8,8,0,0,0,7.91-8V447.57"></path><path class="cls-10 jhjWyliG_9" d="M264.82,427.07L489.56,427.31"></path><path class="cls-11 jhjWyliG_10" d="M277.27,569.56L310.11,538.36"></path><path class="cls-12 jhjWyliG_11" d="M315.75,520.44a10.88,10.88,0,1,0,8.12,1.28"></path><path class="cls-13 jhjWyliG_12" d="M353.79,533.59a10.84,10.84,0,1,0,5.86-1.73"></path><path class="cls-14 jhjWyliG_13" d="M514.82,503.34a10.84,10.84,0,1,0-13.14,3.24"></path><path class="cls-15 jhjWyliG_14" d="M329.13,534.36L348.98,540.85"></path><path class="cls-16 jhjWyliG_15" d="M368.4,536.36L397.89,520.14"></path><path class="cls-17 jhjWyliG_16" d="M403.35,497.59a18,18,0,1,0,19.07-1.25"></path><path class="cls-18 jhjWyliG_17" d="M428.67,502L453.52,487.93"></path><path class="cls-19 jhjWyliG_18" d="M473.3,486.31L495.71,494.16"></path><path class="cls-20 jhjWyliG_19" d="M514.16,489.12L536.52,465.49"></path><path class="cls-21 jhjWyliG_20" d="M526.53,466.05L537.23,465.19"></path><path class="cls-22 jhjWyliG_21" d="M537.15,476.28L537.31,465.34"></path><path class="cls-23 jhjWyliG_22" d="M122.89,601.52l-.54,0a9.41,9.41,0,0,1-2.8-18.39,10.17,10.17,0,0,1,2.91-.16"></path><path class="cls-24 jhjWyliG_23" d="M126.48,620.34l.58,0a9.41,9.41,0,0,0,0-18.81c-1.15,0-3.09,0-4.17,0"></path><path class="cls-25 jhjWyliG_24" d="M120.25,582.98L204.31,582.98"></path><path class="cls-26 jhjWyliG_25" d="M127.9,620.35L77.7,620.35"></path><path class="cls-27 jhjWyliG_26" d="M34.14,627.12L45.71,627.12"></path><path class="cls-27 jhjWyliG_27" d="M54.23,627.12L115.72,627.12"></path><path class="cls-28 jhjWyliG_28" d="M51.54,608.44L106.01,608.5"></path><path class="cls-29 jhjWyliG_29" d="M14.78,586.91h1.68a8.52,8.52,0,0,0,0-17H15.11"></path><path class="cls-30 jhjWyliG_30" d="M.61,569.87H16.46"></path><path class="cls-31 jhjWyliG_31" d="M16.77,586.91H.75"></path><path class="cls-32 jhjWyliG_32" d="M.83,608.21c13.26-.32,27.26-.32,40.75,0"></path><path class="cls-33 jhjWyliG_33" d="M1504.07,441.1c-29.9-.9-42.61-73-42.61-73M1645.88,441c29.9-.9,42.61-73,42.61-73m-44-24-139.07.09m139.07-.09a175.66,175.66,0,0,1,1.37,22c0,61.8-31.74,111.89-70.89,111.89s-70.89-50.1-70.89-111.89a175.69,175.69,0,0,1,1.36-21.9m-1.34,24.23-42.63-.18m184.4,0,42.63-.18M1573.74,492.7a19.6,19.6,0,1,0,19.6,19.6A19.6,19.6,0,0,0,1573.74,492.7Zm-19.6,72.56c8.61-7.15,11.81-20.46,12.35-34.71m-2.82-35.64c-2-11.6-4.21-19.79-4.21-19.79m23.24,55.43c.53,14.24,3.74,27.56,12.35,34.71m-5.32-90.14s-2.24,8.2-4.21,19.79M1622.41,601V573.72a7.92,7.92,0,0,0-7.92-7.92h-79.62a7.92,7.92,0,0,0-7.92,7.92V601a7.92,7.92,0,0,0,7.92,7.92h79.62A7.92,7.92,0,0,0,1622.41,601Zm-67.31-12.61,39.16,0m29.79-184.69a49.81,49.81,0,1,1-49.81-49.81A49.81,49.81,0,0,1,1624.05,403.71Zm-68.83-13.93c.53-13.4,8.5-24,18.25-24,10.09,0,18.27,11.4,18.27,25.46s-8.18,25.46-18.27,25.46c-7.7,0-14.29-6.64-17-16m25.09-25.72c-5,11.74-26.09,11.74-26.09,11.74m36.25,3.88s-10.72-9.75-10.16-15.62m-20.13,25.72h-6a4.07,4.07,0,0,1-4.06-4.06v-2.93a4.07,4.07,0,0,1,4.06-4.06h6a4.07,4.07,0,0,1,4.06,4.06v2.93A4.07,4.07,0,0,1,1561.44,400.64Zm18.41,0h-6a4.07,4.07,0,0,1-4.06-4.06v-2.93a4.07,4.07,0,0,1,4.06-4.06h6a4.07,4.07,0,0,1,4.06,4.06v2.93A4.07,4.07,0,0,1,1579.84,400.64ZM1565.5,395h4.12m14.29-1,7.65-2.57m-53.8,46.21L1542,430a12.34,12.34,0,0,1,10.78-6.32h42.74a15.12,15.12,0,0,1,11.57,5.39l5.45,6.48M1570,440.11l-17.23-16.41m25.47,16,17.14-16m-24.63,10.11-8.16-10.16m14.18,9.56,7.81-9.42M1574.32,453h-.45a3.87,3.87,0,0,1-3.86-3.86V436.08a3.87,3.87,0,0,1,3.86-3.86h.45a3.87,3.87,0,0,1,3.86,3.86v13.09A3.87,3.87,0,0,1,1574.32,453Zm22.25-37.08a1.95,1.95,0,1,1-1.95-1.95A1.95,1.95,0,0,1,1596.57,415.95Zm10.74,0a1.95,1.95,0,1,1-1.95-1.95A1.95,1.95,0,0,1,1607.31,415.95Zm-7.91-110a28,28,0,1,1-28-28A28,28,0,0,1,1599.39,305.91Zm-39.2-25.65c9.84,3.24,16,8.06,19.76,13.49m18.6,19s-27.22,14.9-43.39-5.25m-5.09-8.43a57.29,57.29,0,0,1-2.74-7.43m3.39,24.88a41.87,41.87,0,0,1-6.08-2.33m51.5-21.32c-8.19,23-23.87,26.66-35.79,25.58m-2.89-15.19a4.8,4.8,0,1,1-4.8-4.8A4.8,4.8,0,0,1,1557.48,303.23Zm29-4.8a4.8,4.8,0,1,1-4.8-4.8A4.8,4.8,0,0,1,1586.45,298.42Zm-26.25,19.24a4.8,4.8,0,1,1-4.8-4.8A4.8,4.8,0,0,1,1560.2,317.67ZM1584,302.86c3.68,14.59-4.05,29.69-4.05,29.69"></path><path class="cls-34 jhjWyliG_34" d="M1699.63,291.48l258.72.57m-70.8,154h46.4a2.57,2.57,0,0,0,2.57-2.57v-132a2.57,2.57,0,0,0-2.57-2.57h-46.4a2.57,2.57,0,0,0-2.57,2.57v132A2.57,2.57,0,0,0,1887.54,446.06Zm-13.3-92.61v-42a2.57,2.57,0,0,0-2.57-2.57H1720.75a2.57,2.57,0,0,0-2.57,2.57v42a2.57,2.57,0,0,0,2.57,2.57h150.92A2.57,2.57,0,0,0,1874.24,353.46Zm0,57.31v-42a2.57,2.57,0,0,0-2.57-2.57H1720.75a2.57,2.57,0,0,0-2.57,2.57v42a2.57,2.57,0,0,0,2.57,2.57h150.92A2.57,2.57,0,0,0,1874.24,410.77Zm0,30.92V425.08a2.57,2.57,0,0,0-2.57-2.57H1720.75a2.57,2.57,0,0,0-2.57,2.57v16.61a2.57,2.57,0,0,0,2.57,2.57h150.92A2.57,2.57,0,0,0,1874.24,441.69Zm84.11,22.1V259.35a6.18,6.18,0,0,0-6.16-6.16h-246.4a6.18,6.18,0,0,0-6.16,6.16V463.79a6.18,6.18,0,0,0,6.16,6.16h246.4A6.18,6.18,0,0,0,1958.35,463.79Zm-34.79-190.41a6.48,6.48,0,1,0,6.48-6.53A6.5,6.5,0,0,0,1923.56,273.38Zm-22.7,0a6.48,6.48,0,1,0,6.48-6.53A6.5,6.5,0,0,0,1900.86,273.38Zm-24.23,0a6.48,6.48,0,1,0,6.48-6.53A6.5,6.5,0,0,0,1876.63,273.38ZM1697.7,565.84A136.56,136.56,0,0,0,1712,600.73m46.3,47.58a134.32,134.32,0,0,0,35.84,15.41m69.29.5c12.73-3.3,24.18-8.69,35.18-15.33m47.12-47.66a136.56,136.56,0,0,0,14.71-35.71m-.12-68.54a136.51,136.51,0,0,0-10.16-27.11m-242.34.08a136.51,136.51,0,0,0-10.35,27.94m21.28,7.92a115.93,115.93,0,0,0,.36,52.86M1731.35,589a114.22,114.22,0,0,0,38,39.38m30,13.17a113.12,113.12,0,0,0,56.41.73m31.37-13a114.18,114.18,0,0,0,39.16-39.66m12.44-30.44a115.88,115.88,0,0,0,0-55.37m-133.36-84-72.15,50.72,0,0-35.84,27.27,21.28,7.92m86.52-86.27M1960.36,497l-21.5,6.9m21.62,61.65-21.66-6.29m6.95,42-19.49-11.39m-63.14,74.33-7.08-21.63m31.16-13.22,11.43,19.57m-140.17-.59,10.92-19.89m24.92,35.31,5.11-22.13M1697.7,565.84l21.44-7.17M1712,600.73,1731.35,589M1772.06,470a85,85,0,0,0-24.69,46.18m0,0,57.2.63M1816,470V505.2m-11.45,11.57L1816,505.2m95.69,12a85,85,0,0,0-25.1-47.28m-43.1,0-.39,35.73m68.59,11.55H1854.6m-11.47-11.55,11.47,11.55M1746.53,545a84.72,84.72,0,0,0,68,69.22m0,0,.63-57.67M1746.53,545h57.12m11.47,11.55L1803.65,545m40.5,69.18a84.71,84.71,0,0,0,68.66-68.52m0,0-57.2-.63m-11.45,69.15V556.61M1855.6,545l-11.45,11.57m-3.82-34.77-21.4,18.71"></path><path class="cls-35 jhjWyliG_35" d="M1845,94a3.38,3.38,0,1,0,3.38,3.38A3.38,3.38,0,0,0,1845,94ZM1751.23.6a5.16,5.16,0,1,0,5.16,5.16A5.16,5.16,0,0,0,1751.23.6Z"></path><path class="cls-36 jhjWyliG_36" d="M2004.75,56.69l-.85,0a14.95,14.95,0,0,1-4.44-29.22,16.16,16.16,0,0,1,4.62-.26"></path><path class="cls-37 jhjWyliG_37" d="M2010.45,86.58l.93,0a14.94,14.94,0,1,0,0-29.89c-1.82,0-4.91,0-6.63,0"></path><path class="cls-38 jhjWyliG_38" d="M2000.55,27.24c22.54-.35,46.54-.35,69.74,0"></path><path class="cls-39 jhjWyliG_39" d="M2012.7,86.61L1932.96,86.61"></path><path class="cls-40 jhjWyliG_40" d="M1863.77,97.36L1882.15,97.36"></path><path class="cls-40 jhjWyliG_41" d="M1895.69,97.36L1993.36,97.36"></path><path class="cls-41 jhjWyliG_42" d="M1891.4,67.68L1977.94,67.77"></path><path class="cls-42 jhjWyliG_43" d="M1833,33.48h2.67a13.53,13.53,0,1,0,0-27.07h-2.14"></path><path class="cls-43 jhjWyliG_44" d="M1779.3,33.48h-3.62a16.92,16.92,0,1,0,0,33.84h1.5"></path><path class="cls-44 jhjWyliG_45" d="M1809.77,6.41L1835.68,6.41"></path><path class="cls-45 jhjWyliG_46" d="M1836.16,33.48L1775.9,33.48"></path><path class="cls-46 jhjWyliG_47" d="M1775.68,67.32L1875.58,67.32"></path><path class="cls-44 jhjWyliG_48" d="M1772.64,6.41L1792.09,6.41"></path><path class="cls-47 jhjWyliG_49" d="M1696.21,116.61l.39,28.88m-30.45,29.38h-26.53m85.91,0h27.82m-57.27,30.05.14,27m-.37-86.37a29.68,29.68,0,1,0,29.68,29.68A29.68,29.68,0,0,0,1695.84,145.56Zm.58-16.6a45.91,45.91,0,1,0,45.91,45.91A45.91,45.91,0,0,0,1696.43,129Zm-8.82,38.69a9.65,9.65,0,0,0,1.62,5.86,4.17,4.17,0,0,0,1.9,1.37,9.38,9.38,0,0,0,2.1.74c.57.11,1.42.23,2.51.4,4.37.63,6.35,1.71,6.35,6,0,4-2.14,6-6.39,6-3.68,0-6-1.94-7-5.81-.12-.4-.32-.57-.61-.4l-.69.28a.73.73,0,0,0-.28.91q2,7.17,8.61,7.17c5.38,0,8-3.07,8-8.31,0-3-.73-5.12-2.31-6.26a10.6,10.6,0,0,0-5.38-1.82c-1-.17-1.78-.28-2.22-.34a7.23,7.23,0,0,1-1.74-.51c-2-.74-2.63-2.11-2.83-5.41,0-3.93,2-5.92,6.07-5.92,3.72,0,5.54,1.71,6.51,5.07.2.4.4.46.69.28l.61-.34a.74.74,0,0,0,.24-1c-1.25-4.16-3.92-6.26-8.09-6.26C1690.27,159.46,1687.6,162.42,1687.6,167.66Zm8.82-14.66v7.15m-.28,29v8.46m-140.72,24.83-.67,0a11.67,11.67,0,0,1-3.47-22.82,12.62,12.62,0,0,1,3.61-.2m5,46.34.72,0a11.67,11.67,0,1,0,0-23.34c-1.42,0-3.83,0-5.18,0m-3.28-23h104.28m-94.79,46.36h-62.27m-68.65,5.75a2.64,2.64,0,1,0,2.64,2.64A2.64,2.64,0,0,0,1430.71,251.54Zm14.62,2.64h14.36m10.57,0h76.27M1466.91,231l67.58.07M1421.31,204.3h2.09a10.57,10.57,0,0,0,0-21.14h-1.67m-42.36,21.14h-2.83a13.21,13.21,0,0,0,0,26.42h1.17m25.45-47.56h20.23m.38,21.14h-47.06m-.17,26.42h78m-97.1-52.1a4,4,0,1,0,4,4A4,4,0,0,0,1357.45,178.63Zm16.71,4.54h15.19"></path></g>    
		
<g id="dotsandlines" data-name="Слой 2">
        <g id="dotsandlines_1" data-name="Слой 1">
            <path class="clss-6" d="M.22,717.8l63.67,31.33m20,1.33,130-38.33m22,3,107,48m12.33-6.33,52.33-226.33m10-.33,114.67,194m18.67,7.17,85-7.17M646.1,711.9A11.08,11.08,0,1,0,657.18,722,11.08,11.08,0,0,0,646.1,711.9Zm-.66-6.49a17.93,17.93,0,1,0,17.93,17.93A17.93,17.93,0,0,0,645.44,704.41Z" />
			
            <path class="clss-7" d="M1355.83,514.83a17.93,17.93,0,1,1-17.93-17.93A17.93,17.93,0,0,1,1355.83,514.83Zm0,0,197.06-1.67m36.67,11.08,64.32,30.88m21.11,4.7L1817.32,530m20.85-6.48,69.31-27.06m18.45-11.38,76.94-111.8m16.27-5.81,53.07,17.7" />
			
            <circle class="clss-1" cx="74.19" cy="753.33" r="11.08">
                <animate attributeName="r" begin="0" dur="3s" values="11.08;15;11.08" fill="freeze" repeatCount="indefinite" />
            </circle>
            <circle class="clss-1" cx="352.73" cy="767.55" r="11.08">
                <animate attributeName="r" begin="2s" dur="3s" values="11.08;15;11.08" fill="freeze" repeatCount="indefinite" />
            </circle>
            <circle class="clss-1" cx="540.07" cy="733.07" r="11.08">
                <animate attributeName="r" begin="4s" dur="1s" values="11.08;15;11.08" fill="freeze" repeatCount="indefinite" />
            </circle>
            <circle class="clss-1" cx="1337.9" cy="514.83" r="11.08">
                <animate attributeName="r" begin="0" dur="3s" values="11.08;15;11.08" fill="freeze" repeatCount="indefinite" />
            </circle>
            <circle class="clss-1" cx="1663.9" cy="559.83" r="11.08">
                <animate attributeName="r" begin="4s" dur="1s" values="11.08;15;11.08" fill="freeze" repeatCount="indefinite" />
            </circle>
            <circle class="clss-1" cx="1917.9" cy="492.67" r="11.08">
                <animate attributeName="r" begin="2s" dur="3s" values="11.08;15;11.08" fill="freeze" repeatCount="indefinite" />
            </circle>
            <circle class="clss-2" cx="414.35" cy="512.83" r="11.08">
                <animate attributeName="r" begin="1s" dur="2s" values="11.08;15;11.08" fill="freeze" repeatCount="indefinite" />
            </circle>
            <circle class="clss-3" cx="646.02" cy="721.98" r="11.08">
                <animate attributeName="r" begin="4s" dur="2s" values="11.08;15;11.08" fill="freeze" repeatCount="indefinite" />
            </circle>
            <circle class="clss-4" cx="1572.61" cy="513.17" r="11.08">
                <animate attributeName="r" begin="2s" dur="3s" values="11.08;15;11.08" fill="freeze" repeatCount="indefinite" />
            </circle>
            <circle class="clss-5" cx="1828.41" cy="528.73" r="11.08">
                <animate attributeName="r" begin="0" dur="1s" values="11.08;15;11.08" fill="freeze" repeatCount="indefinite" />
            </circle>

            <circle class="clss-8" cx="224.98" cy="711.32" r="11.08">
                <animate attributeName="r" begin="0" dur="3s" values="11.08;15;11.08" fill="freeze" repeatCount="indefinite" />
            </circle>
            <circle class="clss-1" cx="2009.4" cy="364.08" r="11.08">
                <animate attributeName="r" begin="1s" dur="2s" values="11.08;15;11.08" fill="freeze" repeatCount="indefinite" />
            </circle>
        </g>
    </g></g><style data-made-with="vivus-instant">.jhjWyliG_0 {
    stroke-dasharray: 4219 4221;
    stroke-dashoffset: 4220;
    animation: jhjWyliG_draw 5800ms linear 0ms forwards;
}

.jhjWyliG_1 {
    stroke-dasharray: 2020 2022;
    stroke-dashoffset: 2021;
    animation: jhjWyliG_draw 5800ms linear 85ms forwards;
}

.jhjWyliG_2 {
    stroke-dasharray: 749 751;
    stroke-dashoffset: 750;
    animation: jhjWyliG_draw 5800ms linear 171ms forwards;
}

.jhjWyliG_3 {
    stroke-dasharray: 69 71;
    stroke-dashoffset: 70;
    animation: jhjWyliG_draw 5800ms linear 257ms forwards;
}

.jhjWyliG_4 {
    stroke-dasharray: 69 71;
    stroke-dashoffset: 70;
    animation: jhjWyliG_draw 5800ms linear 342ms forwards;
}

.jhjWyliG_5 {
    stroke-dasharray: 773 775;
    stroke-dashoffset: 774;
    animation: jhjWyliG_draw 5800ms linear 428ms forwards;
}

.jhjWyliG_6 {
    stroke-dasharray: 14 16;
    stroke-dashoffset: 15;
    animation: jhjWyliG_draw 5800ms linear 514ms forwards;
}

.jhjWyliG_7 {
    stroke-dasharray: 947 949;
    stroke-dashoffset: 948;
    animation: jhjWyliG_draw 5800ms linear 600ms forwards;
}

.jhjWyliG_8 {
    stroke-dasharray: 830 832;
    stroke-dashoffset: 831;
    animation: jhjWyliG_draw 5800ms linear 685ms forwards;
}

.jhjWyliG_9 {
    stroke-dasharray: 225 227;
    stroke-dashoffset: 226;
    animation: jhjWyliG_draw 5800ms linear 771ms forwards;
}

.jhjWyliG_10 {
    stroke-dasharray: 46 48;
    stroke-dashoffset: 47;
    animation: jhjWyliG_draw 5800ms linear 857ms forwards;
}

.jhjWyliG_11 {
    stroke-dasharray: 60 62;
    stroke-dashoffset: 61;
    animation: jhjWyliG_draw 5800ms linear 942ms forwards;
}

.jhjWyliG_12 {
    stroke-dasharray: 62 64;
    stroke-dashoffset: 63;
    animation: jhjWyliG_draw 5800ms linear 1028ms forwards;
}

.jhjWyliG_13 {
    stroke-dasharray: 54 56;
    stroke-dashoffset: 55;
    animation: jhjWyliG_draw 5800ms linear 1114ms forwards;
}

.jhjWyliG_14 {
    stroke-dasharray: 21 23;
    stroke-dashoffset: 22;
    animation: jhjWyliG_draw 5800ms linear 1200ms forwards;
}

.jhjWyliG_15 {
    stroke-dasharray: 34 36;
    stroke-dashoffset: 35;
    animation: jhjWyliG_draw 5800ms linear 1285ms forwards;
}

.jhjWyliG_16 {
    stroke-dasharray: 93 95;
    stroke-dashoffset: 94;
    animation: jhjWyliG_draw 5800ms linear 1371ms forwards;
}

.jhjWyliG_17 {
    stroke-dasharray: 29 31;
    stroke-dashoffset: 30;
    animation: jhjWyliG_draw 5800ms linear 1457ms forwards;
}

.jhjWyliG_18 {
    stroke-dasharray: 24 26;
    stroke-dashoffset: 25;
    animation: jhjWyliG_draw 5800ms linear 1542ms forwards;
}

.jhjWyliG_19 {
    stroke-dasharray: 33 35;
    stroke-dashoffset: 34;
    animation: jhjWyliG_draw 5800ms linear 1628ms forwards;
}

.jhjWyliG_20 {
    stroke-dasharray: 11 13;
    stroke-dashoffset: 12;
    animation: jhjWyliG_draw 5800ms linear 1714ms forwards;
}

.jhjWyliG_21 {
    stroke-dasharray: 11 13;
    stroke-dashoffset: 12;
    animation: jhjWyliG_draw 5800ms linear 1799ms forwards;
}

.jhjWyliG_22 {
    stroke-dasharray: 31 33;
    stroke-dashoffset: 32;
    animation: jhjWyliG_draw 5800ms linear 1885ms forwards;
}

.jhjWyliG_23 {
    stroke-dasharray: 34 36;
    stroke-dashoffset: 35;
    animation: jhjWyliG_draw 5800ms linear 1971ms forwards;
}

.jhjWyliG_24 {
    stroke-dasharray: 85 87;
    stroke-dashoffset: 86;
    animation: jhjWyliG_draw 5800ms linear 2057ms forwards;
}

.jhjWyliG_25 {
    stroke-dasharray: 51 53;
    stroke-dashoffset: 52;
    animation: jhjWyliG_draw 5800ms linear 2142ms forwards;
}

.jhjWyliG_26 {
    stroke-dasharray: 12 14;
    stroke-dashoffset: 13;
    animation: jhjWyliG_draw 5800ms linear 2228ms forwards;
}

.jhjWyliG_27 {
    stroke-dasharray: 62 64;
    stroke-dashoffset: 63;
    animation: jhjWyliG_draw 5800ms linear 2314ms forwards;
}

.jhjWyliG_28 {
    stroke-dasharray: 55 57;
    stroke-dashoffset: 56;
    animation: jhjWyliG_draw 5800ms linear 2400ms forwards;
}

.jhjWyliG_29 {
    stroke-dasharray: 29 31;
    stroke-dashoffset: 30;
    animation: jhjWyliG_draw 5800ms linear 2485ms forwards;
}

.jhjWyliG_30 {
    stroke-dasharray: 16 18;
    stroke-dashoffset: 17;
    animation: jhjWyliG_draw 5800ms linear 2571ms forwards;
}

.jhjWyliG_31 {
    stroke-dasharray: 17 19;
    stroke-dashoffset: 18;
    animation: jhjWyliG_draw 5800ms linear 2657ms forwards;
}

.jhjWyliG_32 {
    stroke-dasharray: 41 43;
    stroke-dashoffset: 42;
    animation: jhjWyliG_draw 5800ms linear 2742ms forwards;
}

.jhjWyliG_33 {
    stroke-dasharray: 2535 2537;
    stroke-dashoffset: 2536;
    animation: jhjWyliG_draw 5800ms linear 2828ms forwards;
}

.jhjWyliG_34 {
    stroke-dasharray: 4523 4525;
    stroke-dashoffset: 4524;
    animation: jhjWyliG_draw 5800ms linear 2914ms forwards;
}

.jhjWyliG_35 {
    stroke-dasharray: 54 56;
    stroke-dashoffset: 55;
    animation: jhjWyliG_draw 5800ms linear 3000ms forwards;
}

.jhjWyliG_36 {
    stroke-dasharray: 48 50;
    stroke-dashoffset: 49;
    animation: jhjWyliG_draw 5800ms linear 3085ms forwards;
}

.jhjWyliG_37 {
    stroke-dasharray: 55 57;
    stroke-dashoffset: 56;
    animation: jhjWyliG_draw 5800ms linear 3171ms forwards;
}

.jhjWyliG_38 {
    stroke-dasharray: 70 72;
    stroke-dashoffset: 71;
    animation: jhjWyliG_draw 5800ms linear 3257ms forwards;
}

.jhjWyliG_39 {
    stroke-dasharray: 80 82;
    stroke-dashoffset: 81;
    animation: jhjWyliG_draw 5800ms linear 3342ms forwards;
}

.jhjWyliG_40 {
    stroke-dasharray: 19 21;
    stroke-dashoffset: 20;
    animation: jhjWyliG_draw 5800ms linear 3428ms forwards;
}

.jhjWyliG_41 {
    stroke-dasharray: 98 100;
    stroke-dashoffset: 99;
    animation: jhjWyliG_draw 5800ms linear 3514ms forwards;
}

.jhjWyliG_42 {
    stroke-dasharray: 87 89;
    stroke-dashoffset: 88;
    animation: jhjWyliG_draw 5800ms linear 3599ms forwards;
}

.jhjWyliG_43 {
    stroke-dasharray: 48 50;
    stroke-dashoffset: 49;
    animation: jhjWyliG_draw 5800ms linear 3685ms forwards;
}

.jhjWyliG_44 {
    stroke-dasharray: 59 61;
    stroke-dashoffset: 60;
    animation: jhjWyliG_draw 5800ms linear 3771ms forwards;
}

.jhjWyliG_45 {
    stroke-dasharray: 26 28;
    stroke-dashoffset: 27;
    animation: jhjWyliG_draw 5800ms linear 3857ms forwards;
}

.jhjWyliG_46 {
    stroke-dasharray: 61 63;
    stroke-dashoffset: 62;
    animation: jhjWyliG_draw 5800ms linear 3942ms forwards;
}

.jhjWyliG_47 {
    stroke-dasharray: 100 102;
    stroke-dashoffset: 101;
    animation: jhjWyliG_draw 5800ms linear 4028ms forwards;
}

.jhjWyliG_48 {
    stroke-dasharray: 20 22;
    stroke-dashoffset: 21;
    animation: jhjWyliG_draw 5800ms linear 4114ms forwards;
}

.jhjWyliG_49 {
    stroke-dasharray: 1431 1433;
    stroke-dashoffset: 1432;
    animation: jhjWyliG_draw 5800ms linear 4200ms forwards;
}

@keyframes jhjWyliG_draw {
    100% {
        stroke-dashoffset: 0;
    }
}

@keyframes jhjWyliG_fade {
    0% {
        stroke-opacity: 1;
    }
    97.1830985915493% {
        stroke-opacity: 1;
    }
    100% {
        stroke-opacity: 0;
    }
}

</style></svg>